# xmcd
#
# Track frame offsets: 
#        150
#        19735
#        37780
#        56871
#        77422
#        94682
#        114767
#        132450
#        165890
#        190175
#        205607
#        220792
#
# Disc length: 3155 seconds
#
# Revision: 0
# Processed by: cddbd v1.5.2PL0 Copyright (c) Steve Scherf et al.
# Submitted via: ExactAudioCopy v1.0b3
#
DISCID=8c0c510c
DTITLE=Faith, Hope and Charity - Faith, Hope and Charity
DYEAR=1975
DGENRE=Disco
TTITLE0=Let's Go to the Disco
TTITLE1=Just One Look
TTITLE2=Find a Way
TTITLE3=Don't Go Looking for Love
TTITLE4=Mellow Me
TTITLE5=Disco Dan
TTITLE6=Rescue Me
TTITLE7=Little Bit of Love
TTITLE8=To Each His Own (That's My Philosophy)
TTITLE9=To Each His Own (That's My Philosophy) [Edited Version]
TTITLE10=Find a Way [Single Version]
TTITLE11=Don't Go Looking for Love [Single Version]
EXTD=
EXTT0=
EXTT1=
EXTT2=
EXTT3=
EXTT4=
EXTT5=
EXTT6=
EXTT7=
EXTT8=
EXTT9=
EXTT10=
EXTT11=
PLAYORDER=
